<?xml version="1.0" encoding="UTF-8"?>
<!DOCTYPE svg PUBLIC "-//W3C//DTD SVG 1.1//EN" "http://www.w3.org/Graphics/SVG/1.1/DTD/svg11.dtd">
<!-- Creator: CorelDRAW 2020 (64 Bit) -->
<svg xmlns="http://www.w3.org/2000/svg" xml:space="preserve" width="1440mm" height="1126mm" version="1.1" style="shape-rendering:geometricPrecision; text-rendering:geometricPrecision; image-rendering:optimizeQuality; fill-rule:evenodd; clip-rule:evenodd"
viewBox="0 0 144000 112600"
 xmlns:xlink="http://www.w3.org/1999/xlink"
 xmlns:xodm="http://www.corel.com/coreldraw/odm/2003">
 <defs>
  <style type="text/css">
   <![CDATA[
    .str0 {stroke:black;stroke-width:20;stroke-miterlimit:22.9256}
    .fil144 {fill:none}
    .fil0 {fill:#298833}
    .fil1 {fill:#298933}
    .fil2 {fill:#2A8934}
    .fil3 {fill:#2A8A34}
    .fil4 {fill:#2A8A35}
    .fil5 {fill:#2B8A35}
    .fil6 {fill:#2B8B35}
    .fil7 {fill:#2C8B36}
    .fil8 {fill:#2C8C36}
    .fil9 {fill:#2C8C37}
    .fil10 {fill:#2D8D37}
    .fil11 {fill:#2D8E37}
    .fil12 {fill:#2D8E38}
    .fil13 {fill:#2E8E38}
    .fil14 {fill:#2E8F38}
    .fil15 {fill:#2E8F39}
    .fil16 {fill:#2F8F39}
    .fil17 {fill:#2F9039}
    .fil18 {fill:#2F903A}
    .fil19 {fill:#30913A}
    .fil20 {fill:#30913B}
    .fil21 {fill:#30923B}
    .fil22 {fill:#31923B}
    .fil23 {fill:#31933B}
    .fil24 {fill:#31933C}
    .fil25 {fill:#32933C}
    .fil26 {fill:#32943C}
    .fil27 {fill:#32943D}
    .fil28 {fill:#33953D}
    .fil29 {fill:#33953E}
    .fil30 {fill:#33963E}
    .fil31 {fill:#34963E}
    .fil32 {fill:#34963F}
    .fil33 {fill:#34973F}
    .fil34 {fill:#35973F}
    .fil35 {fill:#359840}
    .fil36 {fill:#369940}
    .fil37 {fill:#369941}
    .fil38 {fill:#369A41}
    .fil39 {fill:#379A41}
    .fil40 {fill:#379A42}
    .fil41 {fill:#379B42}
    .fil42 {fill:#389B42}
    .fil43 {fill:#389B43}
    .fil44 {fill:#389C43}
    .fil45 {fill:#399D44}
    .fil46 {fill:#3A9E44}
    .fil47 {fill:#3A9E45}
    .fil48 {fill:#3A9F45}
    .fil49 {fill:#3B9F46}
    .fil50 {fill:#3BA046}
    .fil51 {fill:#3CA147}
    .fil52 {fill:#3CA248}
    .fil53 {fill:#3DA248}
    .fil54 {fill:#3DA348}
    .fil55 {fill:#3EA349}
    .fil56 {fill:#3EA449}
    .fil57 {fill:#3EA44A}
    .fil58 {fill:#3FA44A}
    .fil59 {fill:#3FA54A}
    .fil60 {fill:#3FA64B}
    .fil61 {fill:#40A64B}
    .fil62 {fill:#40A74C}
    .fil63 {fill:#41A74C}
    .fil64 {fill:#41A84C}
    .fil65 {fill:#41A84D}
    .fil66 {fill:#42A84D}
    .fil67 {fill:#42A94D}
    .fil68 {fill:#42A94E}
    .fil69 {fill:#43AA4E}
    .fil70 {fill:#43AB4F}
    .fil71 {fill:#44AB4F}
    .fil72 {fill:#44AC50}
    .fil73 {fill:#45AC50}
    .fil74 {fill:#45AD51}
    .fil75 {fill:#46AE51}
    .fil76 {fill:#46AE52}
    .fil77 {fill:#46AF52}
    .fil78 {fill:#47AF52}
    .fil79 {fill:#47AF53}
    .fil80 {fill:#47B053}
    .fil81 {fill:#48B053}
    .fil82 {fill:#48B154}
    .fil83 {fill:#49B154}
    .fil84 {fill:#49B255}
    .fil85 {fill:#49B355}
    .fil86 {fill:#4AB355}
    .fil87 {fill:#4AB356}
    .fil88 {fill:#4AB456}
    .fil89 {fill:#4BB457}
    .fil90 {fill:#4BB557}
    .fil91 {fill:#4CB557}
    .fil92 {fill:#4CB658}
    .fil93 {fill:#4DB759}
    .fil94 {fill:#4DB859}
    .fil95 {fill:#4EB85A}
    .fil96 {fill:#4EB95A}
    .fil97 {fill:#4EB95B}
    .fil98 {fill:#4FBA5B}
    .fil99 {fill:#50BB5C}
    .fil100 {fill:#50BC5C}
    .fil101 {fill:#50BC5D}
    .fil102 {fill:#51BC5D}
    .fil103 {fill:#51BD5D}
    .fil104 {fill:#51BD5E}
    .fil105 {fill:#52BD5E}
    .fil106 {fill:#52BE5E}
    .fil107 {fill:#52BE5F}
    .fil108 {fill:#53BF5F}
    .fil109 {fill:#53C060}
    .fil110 {fill:#54C060}
    .fil111 {fill:#54C160}
    .fil112 {fill:#54C161}
    .fil113 {fill:#55C161}
    .fil114 {fill:#55C261}
    .fil115 {fill:#55C262}
    .fil116 {fill:#56C362}
    .fil117 {fill:#56C363}
    .fil118 {fill:#56C463}
    .fil119 {fill:#57C463}
    .fil120 {fill:#57C464}
    .fil121 {fill:#57C564}
    .fil122 {fill:#58C564}
    .fil123 {fill:#58C664}
    .fil124 {fill:#58C665}
    .fil125 {fill:#59C765}
    .fil126 {fill:#59C766}
    .fil127 {fill:#59C866}
    .fil128 {fill:#5AC866}
    .fil129 {fill:#5AC867}
    .fil130 {fill:#5AC967}
    .fil131 {fill:#5BC967}
    .fil132 {fill:#5BC968}
    .fil133 {fill:#5BCA68}
    .fil134 {fill:#5CCB68}
    .fil135 {fill:#5CCB69}
    .fil136 {fill:#5CCC69}
    .fil137 {fill:#5DCC6A}
    .fil138 {fill:#5DCD6A}
    .fil139 {fill:#5ECD6A}
    .fil140 {fill:#5ECD6B}
    .fil141 {fill:#5ECE6B}
    .fil142 {fill:#5FCE6C}
    .fil143 {fill:#5FCF6C}
   ]]>
  </style>
    <clipPath id="id0">
     <path d="M-492.64 -43.74l144137.56 0 0 112600 -144137.56 0 0 -112600z"/>
    </clipPath>
   <clipPath id="id1">
    <rect x="47600.26" y="94499.07" width="116575.42" height="56580.52"/>
   </clipPath>
 </defs>
 <g id="Camada_x0020_1">
  <metadata id="CorelCorpID_0Corel-Layer"/>
  <g>
   <g style="clip-path:url(#id0)">
    <polygon class="fil0" points="-492.64,-43.74 351.92,-43.74 351.92,112556.26 -492.64,112556.26 "/>
    <polygon id="1" class="fil0" points="70.4,-43.74 914.95,-43.74 914.95,112556.26 70.4,112556.26 "/>
    <polygon id="2" class="fil1" points="633.43,-43.74 1477.99,-43.74 1477.99,112556.26 633.43,112556.26 "/>
    <polygon id="3" class="fil2" points="1196.47,-43.74 2041.03,-43.74 2041.03,112556.26 1196.47,112556.26 "/>
    <polygon id="4" class="fil2" points="1759.51,-43.74 2604.07,-43.74 2604.07,112556.26 1759.51,112556.26 "/>
    <polygon id="5" class="fil2" points="2322.55,-43.74 3167.1,-43.74 3167.1,112556.26 2322.55,112556.26 "/>
    <polygon id="6" class="fil3" points="2885.58,-43.74 3730.14,-43.74 3730.14,112556.26 2885.58,112556.26 "/>
    <polygon id="7" class="fil4" points="3448.62,-43.74 4293.18,-43.74 4293.18,112556.26 3448.62,112556.26 "/>
    <polygon id="8" class="fil5" points="4011.66,-43.74 4856.21,-43.74 4856.21,112556.26 4011.66,112556.26 "/>
    <polygon id="9" class="fil6" points="4574.7,-43.74 5419.25,-43.74 5419.25,112556.26 4574.7,112556.26 "/>
    <polygon id="10" class="fil6" points="5137.73,-43.74 5982.29,-43.74 5982.29,112556.26 5137.73,112556.26 "/>
    <polygon id="11" class="fil6" points="5700.77,-43.74 6545.33,-43.74 6545.33,112556.26 5700.77,112556.26 "/>
    <polygon id="12" class="fil7" points="6263.81,-43.74 7108.36,-43.74 7108.36,112556.26 6263.81,112556.26 "/>
    <polygon id="13" class="fil8" points="6826.85,-43.74 7671.4,-43.74 7671.4,112556.26 6826.85,112556.26 "/>
    <polygon id="14" class="fil8" points="7389.88,-43.74 8234.44,-43.74 8234.44,112556.26 7389.88,112556.26 "/>
    <polygon id="15" class="fil8" points="7952.92,-43.74 8797.48,-43.74 8797.48,112556.26 7952.92,112556.26 "/>
    <polygon id="16" class="fil9" points="8515.96,-43.74 9360.51,-43.74 9360.51,112556.26 8515.96,112556.26 "/>
    <polygon id="17" class="fil10" points="9078.99,-43.74 9923.55,-43.74 9923.55,112556.26 9078.99,112556.26 "/>
    <polygon id="18" class="fil10" points="9642.03,-43.74 10486.59,-43.74 10486.59,112556.26 9642.03,112556.26 "/>
    <polygon id="19" class="fil10" points="10205.07,-43.74 11049.63,-43.74 11049.63,112556.26 10205.07,112556.26 "/>
    <polygon id="20" class="fil11" points="10768.11,-43.74 11612.66,-43.74 11612.66,112556.26 10768.11,112556.26 "/>
    <polygon id="21" class="fil12" points="11331.14,-43.74 12175.7,-43.74 12175.7,112556.26 11331.14,112556.26 "/>
    <polygon id="22" class="fil13" points="11894.18,-43.74 12738.74,-43.74 12738.74,112556.26 11894.18,112556.26 "/>
    <polygon id="23" class="fil13" points="12457.22,-43.74 13301.77,-43.74 13301.77,112556.26 12457.22,112556.26 "/>
    <polygon id="24" class="fil14" points="13020.26,-43.74 13864.81,-43.74 13864.81,112556.26 13020.26,112556.26 "/>
    <polygon id="25" class="fil15" points="13583.29,-43.74 14427.85,-43.74 14427.85,112556.26 13583.29,112556.26 "/>
    <polygon id="26" class="fil16" points="14146.33,-43.74 14990.89,-43.74 14990.89,112556.26 14146.33,112556.26 "/>
    <polygon id="27" class="fil17" points="14709.37,-43.74 15553.92,-43.74 15553.92,112556.26 14709.37,112556.26 "/>
    <polygon id="28" class="fil17" points="15272.41,-43.74 16116.96,-43.74 16116.96,112556.26 15272.41,112556.26 "/>
    <polygon id="29" class="fil17" points="15835.44,-43.74 16680,-43.74 16680,112556.26 15835.44,112556.26 "/>
    <polygon id="30" class="fil18" points="16398.48,-43.74 17243.04,-43.74 17243.04,112556.26 16398.48,112556.26 "/>
    <polygon id="31" class="fil19" points="16961.52,-43.74 17806.07,-43.74 17806.07,112556.26 16961.52,112556.26 "/>
    <polygon id="32" class="fil19" points="17524.55,-43.74 18369.11,-43.74 18369.11,112556.26 17524.55,112556.26 "/>
    <polygon id="33" class="fil19" points="18087.59,-43.74 18932.15,-43.74 18932.15,112556.26 18087.59,112556.26 "/>
    <polygon id="34" class="fil20" points="18650.63,-43.74 19495.19,-43.74 19495.19,112556.26 18650.63,112556.26 "/>
    <polygon id="35" class="fil21" points="19213.67,-43.74 20058.22,-43.74 20058.22,112556.26 19213.67,112556.26 "/>
    <polygon id="36" class="fil22" points="19776.7,-43.74 20621.26,-43.74 20621.26,112556.26 19776.7,112556.26 "/>
    <polygon id="37" class="fil22" points="20339.74,-43.74 21184.3,-43.74 21184.3,112556.26 20339.74,112556.26 "/>
    <polygon id="38" class="fil23" points="20902.78,-43.74 21747.34,-43.74 21747.34,112556.26 20902.78,112556.26 "/>
    <polygon id="39" class="fil24" points="21465.82,-43.74 22310.37,-43.74 22310.37,112556.26 21465.82,112556.26 "/>
    <polygon id="40" class="fil24" points="22028.85,-43.74 22873.41,-43.74 22873.41,112556.26 22028.85,112556.26 "/>
    <polygon id="41" class="fil25" points="22591.89,-43.74 23436.45,-43.74 23436.45,112556.26 22591.89,112556.26 "/>
    <polygon id="42" class="fil26" points="23154.93,-43.74 23999.48,-43.74 23999.48,112556.26 23154.93,112556.26 "/>
    <polygon id="43" class="fil27" points="23717.97,-43.74 24562.52,-43.74 24562.52,112556.26 23717.97,112556.26 "/>
    <polygon id="44" class="fil27" points="24281,-43.74 25125.56,-43.74 25125.56,112556.26 24281,112556.26 "/>
    <polygon id="45" class="fil28" points="24844.04,-43.74 25688.6,-43.74 25688.6,112556.26 24844.04,112556.26 "/>
    <polygon id="46" class="fil28" points="25407.08,-43.74 26251.63,-43.74 26251.63,112556.26 25407.08,112556.26 "/>
    <polygon id="47" class="fil29" points="25970.12,-43.74 26814.67,-43.74 26814.67,112556.26 25970.12,112556.26 "/>
    <polygon id="48" class="fil29" points="26533.15,-43.74 27377.71,-43.74 27377.71,112556.26 26533.15,112556.26 "/>
    <polygon id="49" class="fil30" points="27096.19,-43.74 27940.75,-43.74 27940.75,112556.26 27096.19,112556.26 "/>
    <polygon id="50" class="fil31" points="27659.23,-43.74 28503.78,-43.74 28503.78,112556.26 27659.23,112556.26 "/>
    <polygon id="51" class="fil31" points="28222.26,-43.74 29066.82,-43.74 29066.82,112556.26 28222.26,112556.26 "/>
    <polygon id="52" class="fil32" points="28785.3,-43.74 29629.86,-43.74 29629.86,112556.26 28785.3,112556.26 "/>
    <polygon id="53" class="fil33" points="29348.34,-43.74 30192.9,-43.74 30192.9,112556.26 29348.34,112556.26 "/>
    <polygon id="54" class="fil33" points="29911.38,-43.74 30755.93,-43.74 30755.93,112556.26 29911.38,112556.26 "/>
    <polygon id="55" class="fil34" points="30474.41,-43.74 31318.97,-43.74 31318.97,112556.26 30474.41,112556.26 "/>
    <polygon id="56" class="fil35" points="31037.45,-43.74 31882.01,-43.74 31882.01,112556.26 31037.45,112556.26 "/>
    <polygon id="57" class="fil35" points="31600.49,-43.74 32445.04,-43.74 32445.04,112556.26 31600.49,112556.26 "/>
    <polygon id="58" class="fil35" points="32163.53,-43.74 33008.08,-43.74 33008.08,112556.26 32163.53,112556.26 "/>
    <polygon id="59" class="fil35" points="32726.56,-43.74 33571.12,-43.74 33571.12,112556.26 32726.56,112556.26 "/>
    <polygon id="60" class="fil36" points="33289.6,-43.74 34134.16,-43.74 34134.16,112556.26 33289.6,112556.26 "/>
    <polygon id="61" class="fil37" points="33852.64,-43.74 34697.19,-43.74 34697.19,112556.26 33852.64,112556.26 "/>
    <polygon id="62" class="fil37" points="34415.68,-43.74 35260.23,-43.74 35260.23,112556.26 34415.68,112556.26 "/>
    <polygon id="63" class="fil38" points="34978.71,-43.74 35823.27,-43.74 35823.27,112556.26 34978.71,112556.26 "/>
    <polygon id="64" class="fil39" points="35541.75,-43.74 36386.31,-43.74 36386.31,112556.26 35541.75,112556.26 "/>
    <polygon id="65" class="fil40" points="36104.79,-43.74 36949.34,-43.74 36949.34,112556.26 36104.79,112556.26 "/>
    <polygon id="66" class="fil40" points="36667.82,-43.74 37512.38,-43.74 37512.38,112556.26 36667.82,112556.26 "/>
    <polygon id="67" class="fil41" points="37230.86,-43.74 38075.42,-43.74 38075.42,112556.26 37230.86,112556.26 "/>
    <polygon id="68" class="fil41" points="37793.9,-43.74 38638.46,-43.74 38638.46,112556.26 37793.9,112556.26 "/>
    <polygon id="69" class="fil42" points="38356.94,-43.74 39201.49,-43.74 39201.49,112556.26 38356.94,112556.26 "/>
    <polygon id="70" class="fil43" points="38919.97,-43.74 39764.53,-43.74 39764.53,112556.26 38919.97,112556.26 "/>
    <polygon id="71" class="fil44" points="39483.01,-43.74 40327.57,-43.74 40327.57,112556.26 39483.01,112556.26 "/>
    <polygon id="72" class="fil44" points="40046.05,-43.74 40890.6,-43.74 40890.6,112556.26 40046.05,112556.26 "/>
    <polygon id="73" class="fil44" points="40609.09,-43.74 41453.64,-43.74 41453.64,112556.26 40609.09,112556.26 "/>
    <polygon id="74" class="fil45" points="41172.12,-43.74 42016.68,-43.74 42016.68,112556.26 41172.12,112556.26 "/>
    <polygon id="75" class="fil45" points="41735.16,-43.74 42579.72,-43.74 42579.72,112556.26 41735.16,112556.26 "/>
    <polygon id="76" class="fil45" points="42298.2,-43.74 43142.75,-43.74 43142.75,112556.26 42298.2,112556.26 "/>
    <polygon id="77" class="fil45" points="42861.24,-43.74 43705.79,-43.74 43705.79,112556.26 42861.24,112556.26 "/>
    <polygon id="78" class="fil46" points="43424.27,-43.74 44268.83,-43.74 44268.83,112556.26 43424.27,112556.26 "/>
    <polygon id="79" class="fil47" points="43987.31,-43.74 44831.87,-43.74 44831.87,112556.26 43987.31,112556.26 "/>
    <polygon id="80" class="fil47" points="44550.35,-43.74 45394.9,-43.74 45394.9,112556.26 44550.35,112556.26 "/>
    <polygon id="81" class="fil48" points="45113.38,-43.74 45957.94,-43.74 45957.94,112556.26 45113.38,112556.26 "/>
    <polygon id="82" class="fil48" points="45676.42,-43.74 46520.98,-43.74 46520.98,112556.26 45676.42,112556.26 "/>
    <polygon id="83" class="fil49" points="46239.46,-43.74 47084.02,-43.74 47084.02,112556.26 46239.46,112556.26 "/>
    <polygon id="84" class="fil49" points="46802.5,-43.74 47647.05,-43.74 47647.05,112556.26 46802.5,112556.26 "/>
    <polygon id="85" class="fil50" points="47365.53,-43.74 48210.09,-43.74 48210.09,112556.26 47365.53,112556.26 "/>
    <polygon id="86" class="fil50" points="47928.57,-43.74 48773.13,-43.74 48773.13,112556.26 47928.57,112556.26 "/>
    <polygon id="87" class="fil50" points="48491.61,-43.74 49336.16,-43.74 49336.16,112556.26 48491.61,112556.26 "/>
    <polygon id="88" class="fil51" points="49054.65,-43.74 49899.2,-43.74 49899.2,112556.26 49054.65,112556.26 "/>
    <polygon id="89" class="fil51" points="49617.68,-43.74 50462.24,-43.74 50462.24,112556.26 49617.68,112556.26 "/>
    <polygon id="90" class="fil51" points="50180.72,-43.74 51025.28,-43.74 51025.28,112556.26 50180.72,112556.26 "/>
    <polygon id="91" class="fil51" points="50743.76,-43.74 51588.31,-43.74 51588.31,112556.26 50743.76,112556.26 "/>
    <polygon id="92" class="fil52" points="51306.8,-43.74 52151.35,-43.74 52151.35,112556.26 51306.8,112556.26 "/>
    <polygon id="93" class="fil53" points="51869.83,-43.74 52714.39,-43.74 52714.39,112556.26 51869.83,112556.26 "/>
    <polygon id="94" class="fil53" points="52432.87,-43.74 53277.43,-43.74 53277.43,112556.26 52432.87,112556.26 "/>
    <polygon id="95" class="fil53" points="52995.91,-43.74 53840.46,-43.74 53840.46,112556.26 52995.91,112556.26 "/>
    <polygon id="96" class="fil54" points="53558.94,-43.74 54403.5,-43.74 54403.5,112556.26 53558.94,112556.26 "/>
    <polygon id="97" class="fil55" points="54121.98,-43.74 54966.54,-43.74 54966.54,112556.26 54121.98,112556.26 "/>
    <polygon id="98" class="fil55" points="54685.02,-43.74 55529.58,-43.74 55529.58,112556.26 54685.02,112556.26 "/>
    <polygon id="99" class="fil56" points="55248.06,-43.74 56092.61,-43.74 56092.61,112556.26 55248.06,112556.26 "/>
    <polygon id="100" class="fil56" points="55811.09,-43.74 56655.65,-43.74 56655.65,112556.26 55811.09,112556.26 "/>
    <polygon id="101" class="fil57" points="56374.13,-43.74 57218.69,-43.74 57218.69,112556.26 56374.13,112556.26 "/>
    <polygon id="102" class="fil58" points="56937.17,-43.74 57781.73,-43.74 57781.73,112556.26 56937.17,112556.26 "/>
    <polygon id="103" class="fil59" points="57500.21,-43.74 58344.76,-43.74 58344.76,112556.26 57500.21,112556.26 "/>
    <polygon id="104" class="fil59" points="58063.24,-43.74 58907.8,-43.74 58907.8,112556.26 58063.24,112556.26 "/>
    <polygon id="105" class="fil59" points="58626.28,-43.74 59470.84,-43.74 59470.84,112556.26 58626.28,112556.26 "/>
    <polygon id="106" class="fil60" points="59189.32,-43.74 60033.87,-43.74 60033.87,112556.26 59189.32,112556.26 "/>
    <polygon id="107" class="fil61" points="59752.36,-43.74 60596.91,-43.74 60596.91,112556.26 59752.36,112556.26 "/>
    <polygon id="108" class="fil61" points="60315.39,-43.74 61159.95,-43.74 61159.95,112556.26 60315.39,112556.26 "/>
    <polygon id="109" class="fil61" points="60878.43,-43.74 61722.99,-43.74 61722.99,112556.26 60878.43,112556.26 "/>
    <polygon id="110" class="fil62" points="61441.47,-43.74 62286.02,-43.74 62286.02,112556.26 61441.47,112556.26 "/>
    <polygon id="111" class="fil63" points="62004.51,-43.74 62849.06,-43.74 62849.06,112556.26 62004.51,112556.26 "/>
    <polygon id="112" class="fil63" points="62567.54,-43.74 63412.1,-43.74 63412.1,112556.26 62567.54,112556.26 "/>
    <polygon id="113" class="fil63" points="63130.58,-43.74 63975.14,-43.74 63975.14,112556.26 63130.58,112556.26 "/>
    <polygon id="114" class="fil64" points="63693.62,-43.74 64538.17,-43.74 64538.17,112556.26 63693.62,112556.26 "/>
    <polygon id="115" class="fil65" points="64256.65,-43.74 65101.21,-43.74 65101.21,112556.26 64256.65,112556.26 "/>
    <polygon id="116" class="fil66" points="64819.69,-43.74 65664.25,-43.74 65664.25,112556.26 64819.69,112556.26 "/>
    <polygon id="117" class="fil67" points="65382.73,-43.74 66227.29,-43.74 66227.29,112556.26 65382.73,112556.26 "/>
    <polygon id="118" class="fil67" points="65945.77,-43.74 66790.32,-43.74 66790.32,112556.26 65945.77,112556.26 "/>
    <polygon id="119" class="fil68" points="66508.8,-43.74 67353.36,-43.74 67353.36,112556.26 66508.8,112556.26 "/>
    <polygon id="120" class="fil68" points="67071.84,-43.74 67916.4,-43.74 67916.4,112556.26 67071.84,112556.26 "/>
    <polygon id="121" class="fil69" points="67634.88,-43.74 68479.43,-43.74 68479.43,112556.26 67634.88,112556.26 "/>
    <polygon id="122" class="fil69" points="68197.92,-43.74 69042.47,-43.74 69042.47,112556.26 68197.92,112556.26 "/>
    <polygon id="123" class="fil69" points="68760.95,-43.74 69605.51,-43.74 69605.51,112556.26 68760.95,112556.26 "/>
    <polygon id="124" class="fil70" points="69323.99,-43.74 70168.55,-43.74 70168.55,112556.26 69323.99,112556.26 "/>
    <polygon id="125" class="fil70" points="69887.03,-43.74 70731.58,-43.74 70731.58,112556.26 69887.03,112556.26 "/>
    <polygon id="126" class="fil71" points="70450.07,-43.74 71294.62,-43.74 71294.62,112556.26 70450.07,112556.26 "/>
    <polygon id="127" class="fil71" points="71013.1,-43.74 71857.66,-43.74 71857.66,112556.26 71013.1,112556.26 "/>
    <polygon id="128" class="fil72" points="71576.14,-43.74 72420.7,-43.74 72420.7,112556.26 71576.14,112556.26 "/>
    <polygon id="129" class="fil72" points="72139.18,-43.74 72983.73,-43.74 72983.73,112556.26 72139.18,112556.26 "/>
    <polygon id="130" class="fil73" points="72702.21,-43.74 73546.77,-43.74 73546.77,112556.26 72702.21,112556.26 "/>
    <polygon id="131" class="fil73" points="73265.25,-43.74 74109.81,-43.74 74109.81,112556.26 73265.25,112556.26 "/>
    <polygon id="132" class="fil74" points="73828.29,-43.74 74672.85,-43.74 74672.85,112556.26 73828.29,112556.26 "/>
    <polygon id="133" class="fil74" points="74391.33,-43.74 75235.88,-43.74 75235.88,112556.26 74391.33,112556.26 "/>
    <polygon id="134" class="fil74" points="74954.36,-43.74 75798.92,-43.74 75798.92,112556.26 74954.36,112556.26 "/>
    <polygon id="135" class="fil75" points="75517.4,-43.74 76361.96,-43.74 76361.96,112556.26 75517.4,112556.26 "/>
    <polygon id="136" class="fil75" points="76080.44,-43.74 76924.99,-43.74 76924.99,112556.26 76080.44,112556.26 "/>
    <polygon id="137" class="fil76" points="76643.48,-43.74 77488.03,-43.74 77488.03,112556.26 76643.48,112556.26 "/>
    <polygon id="138" class="fil76" points="77206.51,-43.74 78051.07,-43.74 78051.07,112556.26 77206.51,112556.26 "/>
    <polygon id="139" class="fil77" points="77769.55,-43.74 78614.11,-43.74 78614.11,112556.26 77769.55,112556.26 "/>
    <polygon id="140" class="fil78" points="78332.59,-43.74 79177.14,-43.74 79177.14,112556.26 78332.59,112556.26 "/>
    <polygon id="141" class="fil79" points="78895.63,-43.74 79740.18,-43.74 79740.18,112556.26 78895.63,112556.26 "/>
    <polygon id="142" class="fil80" points="79458.66,-43.74 80303.22,-43.74 80303.22,112556.26 79458.66,112556.26 "/>
    <polygon id="143" class="fil80" points="80021.7,-43.74 80866.26,-43.74 80866.26,112556.26 80021.7,112556.26 "/>
    <polygon id="144" class="fil80" points="80584.74,-43.74 81429.29,-43.74 81429.29,112556.26 80584.74,112556.26 "/>
    <polygon id="145" class="fil81" points="81147.77,-43.74 81992.33,-43.74 81992.33,112556.26 81147.77,112556.26 "/>
    <polygon id="146" class="fil82" points="81710.81,-43.74 82555.37,-43.74 82555.37,112556.26 81710.81,112556.26 "/>
    <polygon id="147" class="fil82" points="82273.85,-43.74 83118.41,-43.74 83118.41,112556.26 82273.85,112556.26 "/>
    <polygon id="148" class="fil82" points="82836.89,-43.74 83681.44,-43.74 83681.44,112556.26 82836.89,112556.26 "/>
    <polygon id="149" class="fil83" points="83399.92,-43.74 84244.48,-43.74 84244.48,112556.26 83399.92,112556.26 "/>
    <polygon id="150" class="fil84" points="83962.96,-43.74 84807.52,-43.74 84807.52,112556.26 83962.96,112556.26 "/>
    <polygon id="151" class="fil84" points="84526,-43.74 85370.55,-43.74 85370.55,112556.26 84526,112556.26 "/>
    <polygon id="152" class="fil84" points="85089.04,-43.74 85933.59,-43.74 85933.59,112556.26 85089.04,112556.26 "/>
    <polygon id="153" class="fil85" points="85652.07,-43.74 86496.63,-43.74 86496.63,112556.26 85652.07,112556.26 "/>
    <polygon id="154" class="fil86" points="86215.11,-43.74 87059.67,-43.74 87059.67,112556.26 86215.11,112556.26 "/>
    <polygon id="155" class="fil87" points="86778.15,-43.74 87622.7,-43.74 87622.7,112556.26 86778.15,112556.26 "/>
    <polygon id="156" class="fil87" points="87341.19,-43.74 88185.74,-43.74 88185.74,112556.26 87341.19,112556.26 "/>
    <polygon id="157" class="fil88" points="87904.22,-43.74 88748.78,-43.74 88748.78,112556.26 87904.22,112556.26 "/>
    <polygon id="158" class="fil88" points="88467.26,-43.74 89311.82,-43.74 89311.82,112556.26 88467.26,112556.26 "/>
    <polygon id="159" class="fil89" points="89030.3,-43.74 89874.85,-43.74 89874.85,112556.26 89030.3,112556.26 "/>
    <polygon id="160" class="fil90" points="89593.34,-43.74 90437.89,-43.74 90437.89,112556.26 89593.34,112556.26 "/>
    <polygon id="161" class="fil90" points="90156.37,-43.74 91000.93,-43.74 91000.93,112556.26 90156.37,112556.26 "/>
    <polygon id="162" class="fil90" points="90719.41,-43.74 91563.97,-43.74 91563.97,112556.26 90719.41,112556.26 "/>
    <polygon id="163" class="fil91" points="91282.45,-43.74 92127,-43.74 92127,112556.26 91282.45,112556.26 "/>
    <polygon id="164" class="fil92" points="91845.48,-43.74 92690.04,-43.74 92690.04,112556.26 91845.48,112556.26 "/>
    <polygon id="165" class="fil92" points="92408.52,-43.74 93253.08,-43.74 93253.08,112556.26 92408.52,112556.26 "/>
    <polygon id="166" class="fil92" points="92971.56,-43.74 93816.12,-43.74 93816.12,112556.26 92971.56,112556.26 "/>
    <polygon id="167" class="fil92" points="93534.6,-43.74 94379.15,-43.74 94379.15,112556.26 93534.6,112556.26 "/>
    <polygon id="168" class="fil93" points="94097.63,-43.74 94942.19,-43.74 94942.19,112556.26 94097.63,112556.26 "/>
    <polygon id="169" class="fil93" points="94660.67,-43.74 95505.23,-43.74 95505.23,112556.26 94660.67,112556.26 "/>
    <polygon id="170" class="fil93" points="95223.71,-43.74 96068.26,-43.74 96068.26,112556.26 95223.71,112556.26 "/>
    <polygon id="171" class="fil94" points="95786.75,-43.74 96631.3,-43.74 96631.3,112556.26 95786.75,112556.26 "/>
    <polygon id="172" class="fil94" points="96349.78,-43.74 97194.34,-43.74 97194.34,112556.26 96349.78,112556.26 "/>
    <polygon id="173" class="fil95" points="96912.82,-43.74 97757.38,-43.74 97757.38,112556.26 96912.82,112556.26 "/>
    <polygon id="174" class="fil95" points="97475.86,-43.74 98320.41,-43.74 98320.41,112556.26 97475.86,112556.26 "/>
    <polygon id="175" class="fil96" points="98038.9,-43.74 98883.45,-43.74 98883.45,112556.26 98038.9,112556.26 "/>
    <polygon id="176" class="fil96" points="98601.93,-43.74 99446.49,-43.74 99446.49,112556.26 98601.93,112556.26 "/>
    <polygon id="177" class="fil97" points="99164.97,-43.74 100009.53,-43.74 100009.53,112556.26 99164.97,112556.26 "/>
    <polygon id="178" class="fil98" points="99728.01,-43.74 100572.56,-43.74 100572.56,112556.26 99728.01,112556.26 "/>
    <polygon id="179" class="fil98" points="100291.04,-43.74 101135.6,-43.74 101135.6,112556.26 100291.04,112556.26 "/>
    <polygon id="180" class="fil98" points="100854.08,-43.74 101698.64,-43.74 101698.64,112556.26 100854.08,112556.26 "/>
    <polygon id="181" class="fil98" points="101417.12,-43.74 102261.68,-43.74 102261.68,112556.26 101417.12,112556.26 "/>
    <polygon id="182" class="fil99" points="101980.16,-43.74 102824.71,-43.74 102824.71,112556.26 101980.16,112556.26 "/>
    <polygon id="183" class="fil99" points="102543.19,-43.74 103387.75,-43.74 103387.75,112556.26 102543.19,112556.26 "/>
    <polygon id="184" class="fil99" points="103106.23,-43.74 103950.79,-43.74 103950.79,112556.26 103106.23,112556.26 "/>
    <polygon id="185" class="fil100" points="103669.27,-43.74 104513.82,-43.74 104513.82,112556.26 103669.27,112556.26 "/>
    <polygon id="186" class="fil101" points="104232.31,-43.74 105076.86,-43.74 105076.86,112556.26 104232.31,112556.26 "/>
    <polygon id="187" class="fil102" points="104795.34,-43.74 105639.9,-43.74 105639.9,112556.26 104795.34,112556.26 "/>
    <polygon id="188" class="fil102" points="105358.38,-43.74 106202.94,-43.74 106202.94,112556.26 105358.38,112556.26 "/>
    <polygon id="189" class="fil103" points="105921.42,-43.74 106765.97,-43.74 106765.97,112556.26 105921.42,112556.26 "/>
    <polygon id="190" class="fil103" points="106484.46,-43.74 107329.01,-43.74 107329.01,112556.26 106484.46,112556.26 "/>
    <polygon id="191" class="fil104" points="107047.49,-43.74 107892.05,-43.74 107892.05,112556.26 107047.49,112556.26 "/>
    <polygon id="192" class="fil105" points="107610.53,-43.74 108455.09,-43.74 108455.09,112556.26 107610.53,112556.26 "/>
    <polygon id="193" class="fil106" points="108173.57,-43.74 109018.12,-43.74 109018.12,112556.26 108173.57,112556.26 "/>
    <polygon id="194" class="fil106" points="108736.6,-43.74 109581.16,-43.74 109581.16,112556.26 108736.6,112556.26 "/>
    <polygon id="195" class="fil107" points="109299.64,-43.74 110144.2,-43.74 110144.2,112556.26 109299.64,112556.26 "/>
    <polygon id="196" class="fil108" points="109862.68,-43.74 110707.24,-43.74 110707.24,112556.26 109862.68,112556.26 "/>
    <polygon id="197" class="fil108" points="110425.72,-43.74 111270.27,-43.74 111270.27,112556.26 110425.72,112556.26 "/>
    <polygon id="198" class="fil108" points="110988.75,-43.74 111833.31,-43.74 111833.31,112556.26 110988.75,112556.26 "/>
    <polygon id="199" class="fil108" points="111551.79,-43.74 112396.35,-43.74 112396.35,112556.26 111551.79,112556.26 "/>
    <polygon id="200" class="fil109" points="112114.83,-43.74 112959.38,-43.74 112959.38,112556.26 112114.83,112556.26 "/>
    <polygon id="201" class="fil110" points="112677.87,-43.74 113522.42,-43.74 113522.42,112556.26 112677.87,112556.26 "/>
    <polygon id="202" class="fil110" points="113240.9,-43.74 114085.46,-43.74 114085.46,112556.26 113240.9,112556.26 "/>
    <polygon id="203" class="fil111" points="113803.94,-43.74 114648.5,-43.74 114648.5,112556.26 113803.94,112556.26 "/>
    <polygon id="204" class="fil112" points="114366.98,-43.74 115211.53,-43.74 115211.53,112556.26 114366.98,112556.26 "/>
    <polygon id="205" class="fil112" points="114930.02,-43.74 115774.57,-43.74 115774.57,112556.26 114930.02,112556.26 "/>
    <polygon id="206" class="fil113" points="115493.05,-43.74 116337.61,-43.74 116337.61,112556.26 115493.05,112556.26 "/>
    <polygon id="207" class="fil114" points="116056.09,-43.74 116900.65,-43.74 116900.65,112556.26 116056.09,112556.26 "/>
    <polygon id="208" class="fil114" points="116619.13,-43.74 117463.68,-43.74 117463.68,112556.26 116619.13,112556.26 "/>
    <polygon id="209" class="fil115" points="117182.16,-43.74 118026.72,-43.74 118026.72,112556.26 117182.16,112556.26 "/>
    <polygon id="210" class="fil115" points="117745.2,-43.74 118589.76,-43.74 118589.76,112556.26 117745.2,112556.26 "/>
    <polygon id="211" class="fil116" points="118308.24,-43.74 119152.8,-43.74 119152.8,112556.26 118308.24,112556.26 "/>
    <polygon id="212" class="fil116" points="118871.28,-43.74 119715.83,-43.74 119715.83,112556.26 118871.28,112556.26 "/>
    <polygon id="213" class="fil117" points="119434.31,-43.74 120278.87,-43.74 120278.87,112556.26 119434.31,112556.26 "/>
    <polygon id="214" class="fil118" points="119997.35,-43.74 120841.91,-43.74 120841.91,112556.26 119997.35,112556.26 "/>
    <polygon id="215" class="fil119" points="120560.39,-43.74 121404.94,-43.74 121404.94,112556.26 120560.39,112556.26 "/>
    <polygon id="216" class="fil119" points="121123.43,-43.74 121967.98,-43.74 121967.98,112556.26 121123.43,112556.26 "/>
    <polygon id="217" class="fil120" points="121686.46,-43.74 122531.02,-43.74 122531.02,112556.26 121686.46,112556.26 "/>
    <polygon id="218" class="fil121" points="122249.5,-43.74 123094.06,-43.74 123094.06,112556.26 122249.5,112556.26 "/>
    <polygon id="219" class="fil121" points="122812.54,-43.74 123657.09,-43.74 123657.09,112556.26 122812.54,112556.26 "/>
    <polygon id="220" class="fil122" points="123375.58,-43.74 124220.13,-43.74 124220.13,112556.26 123375.58,112556.26 "/>
    <polygon id="221" class="fil123" points="123938.61,-43.74 124783.17,-43.74 124783.17,112556.26 123938.61,112556.26 "/>
    <polygon id="222" class="fil124" points="124501.65,-43.74 125346.21,-43.74 125346.21,112556.26 124501.65,112556.26 "/>
    <polygon id="223" class="fil124" points="125064.69,-43.74 125909.24,-43.74 125909.24,112556.26 125064.69,112556.26 "/>
    <polygon id="224" class="fil124" points="125627.73,-43.74 126472.28,-43.74 126472.28,112556.26 125627.73,112556.26 "/>
    <polygon id="225" class="fil125" points="126190.76,-43.74 127035.32,-43.74 127035.32,112556.26 126190.76,112556.26 "/>
    <polygon id="226" class="fil126" points="126753.8,-43.74 127598.36,-43.74 127598.36,112556.26 126753.8,112556.26 "/>
    <polygon id="227" class="fil126" points="127316.84,-43.74 128161.39,-43.74 128161.39,112556.26 127316.84,112556.26 "/>
    <polygon id="228" class="fil126" points="127879.87,-43.74 128724.43,-43.74 128724.43,112556.26 127879.87,112556.26 "/>
    <polygon id="229" class="fil127" points="128442.91,-43.74 129287.47,-43.74 129287.47,112556.26 128442.91,112556.26 "/>
    <polygon id="230" class="fil128" points="129005.95,-43.74 129850.51,-43.74 129850.51,112556.26 129005.95,112556.26 "/>
    <polygon id="231" class="fil129" points="129568.99,-43.74 130413.54,-43.74 130413.54,112556.26 129568.99,112556.26 "/>
    <polygon id="232" class="fil130" points="130132.02,-43.74 130976.58,-43.74 130976.58,112556.26 130132.02,112556.26 "/>
    <polygon id="233" class="fil130" points="130695.06,-43.74 131539.62,-43.74 131539.62,112556.26 130695.06,112556.26 "/>
    <polygon id="234" class="fil131" points="131258.1,-43.74 132102.65,-43.74 132102.65,112556.26 131258.1,112556.26 "/>
    <polygon id="235" class="fil132" points="131821.14,-43.74 132665.69,-43.74 132665.69,112556.26 131821.14,112556.26 "/>
    <polygon id="236" class="fil133" points="132384.17,-43.74 133228.73,-43.74 133228.73,112556.26 132384.17,112556.26 "/>
    <polygon id="237" class="fil133" points="132947.21,-43.74 133791.77,-43.74 133791.77,112556.26 132947.21,112556.26 "/>
    <polygon id="238" class="fil133" points="133510.25,-43.74 134354.8,-43.74 134354.8,112556.26 133510.25,112556.26 "/>
    <polygon id="239" class="fil134" points="134073.29,-43.74 134917.84,-43.74 134917.84,112556.26 134073.29,112556.26 "/>
    <polygon id="240" class="fil135" points="134636.32,-43.74 135480.88,-43.74 135480.88,112556.26 134636.32,112556.26 "/>
    <polygon id="241" class="fil135" points="135199.36,-43.74 136043.92,-43.74 136043.92,112556.26 135199.36,112556.26 "/>
    <polygon id="242" class="fil135" points="135762.4,-43.74 136606.95,-43.74 136606.95,112556.26 135762.4,112556.26 "/>
    <polygon id="243" class="fil136" points="136325.43,-43.74 137169.99,-43.74 137169.99,112556.26 136325.43,112556.26 "/>
    <polygon id="244" class="fil137" points="136888.47,-43.74 137733.03,-43.74 137733.03,112556.26 136888.47,112556.26 "/>
    <polygon id="245" class="fil137" points="137451.51,-43.74 138296.07,-43.74 138296.07,112556.26 137451.51,112556.26 "/>
    <polygon id="246" class="fil137" points="138014.55,-43.74 138859.1,-43.74 138859.1,112556.26 138014.55,112556.26 "/>
    <polygon id="247" class="fil138" points="138577.58,-43.74 139422.14,-43.74 139422.14,112556.26 138577.58,112556.26 "/>
    <polygon id="248" class="fil139" points="139140.62,-43.74 139985.18,-43.74 139985.18,112556.26 139140.62,112556.26 "/>
    <polygon id="249" class="fil140" points="139703.66,-43.74 140548.21,-43.74 140548.21,112556.26 139703.66,112556.26 "/>
    <polygon id="250" class="fil141" points="140266.7,-43.74 141111.25,-43.74 141111.25,112556.26 140266.7,112556.26 "/>
    <polygon id="251" class="fil141" points="140829.73,-43.74 141674.29,-43.74 141674.29,112556.26 140829.73,112556.26 "/>
    <polygon id="252" class="fil141" points="141392.77,-43.74 142237.33,-43.74 142237.33,112556.26 141392.77,112556.26 "/>
    <polygon id="253" class="fil142" points="141955.81,-43.74 142800.36,-43.74 142800.36,112556.26 141955.81,112556.26 "/>
    <polygon id="254" class="fil143" points="142518.85,-43.74 143363.4,-43.74 143363.4,112556.26 142518.85,112556.26 "/>
    <polygon id="255" class="fil143" points="143081.88,-43.74 143926.44,-43.74 143926.44,112556.26 143081.88,112556.26 "/>
    <polygon id="256" class="fil143" points="143644.92,-43.74 143644.92,-43.74 143644.92,112556.26 143644.92,112556.26 "/>
   </g>
   <polygon id="257" class="fil144 str0" points="-492.64,-43.74 143644.92,-43.74 143644.92,112556.26 -492.64,112556.26 "/>
  </g>
  <g style="clip-path:url(#id1)">
   <image id="abaixo.png" x="47600.26" y="94499.03" width="116575.46" height="56580.56" xlink:href="fundo_sobre_Images\fundo_sobre_ImgID1.png"/>
  </g>
 </g>
</svg>
